<?xml version="1.0" encoding="utf-8"?>
<!-- Generator: Adobe Illustrator 24.1.2, SVG Export Plug-In . SVG Version: 6.00 Build 0)  -->
<svg version="1.1" id="Layer_1" xmlns="http://www.w3.org/2000/svg" xmlns:xlink="http://www.w3.org/1999/xlink" x="0px" y="0px"
	 viewBox="0 0 870.84 361.26" style="enable-background:new 0 0 870.84 361.26;" xml:space="preserve">
<style type="text/css">
	.st0{fill:#E6E6E6;}
	.st1{fill:#FCCA3F;}
	.st2{fill:#3F3D56;}
	.st3{opacity:0.8;fill:url(#SVGID_1_);enable-background:new    ;}
	.st4{fill:#E91E63;}
	.st5{opacity:0.8;fill:url(#SVGID_2_);enable-background:new    ;}
	.st6{opacity:0.8;fill:url(#SVGID_3_);enable-background:new    ;}
	.st7{opacity:0.8;fill:url(#SVGID_4_);enable-background:new    ;}
	.st8{opacity:0.8;fill:url(#SVGID_5_);enable-background:new    ;}
	.st9{fill:#CBCBCB;}
</style>
<ellipse class="st0" cx="650.92" cy="389.06" rx="409.34" ry="190.96"/>
<path id="rectangle" class="st1" d="M469.62,141.62L469.62,141.62c-31.37,0-56.81-25.43-56.81-56.81v-91.6
	c0-31.37,25.43-56.81,56.81-56.81h0c31.37,0,56.81,25.43,56.81,56.81v91.6C526.42,116.18,500.99,141.62,469.62,141.62z"/>
<g id="sky">
	<path class="st2" d="M376.52,68.61c0.11,117.43-85.91,217.18-202.07,234.35h-64.16c-0.1,0.09-3.66,0.26-3.66,0.26
		c-0.6-0.08-1.2-0.17-1.8-0.26c-4.57-0.67-9.09-1.47-13.58-2.41c-17.56-3.63-34.64-9.27-50.92-16.81c-0.17-0.08-0.33-0.16-0.5-0.23
		c-9.07-4.21-17.86-9-26.31-14.33c-0.21-0.13-0.42-0.26-0.63-0.4c-0.36-0.23-0.71-0.45-1.06-0.68c-0.11-0.07-0.23-0.14-0.34-0.21
		c-7.56-4.87-14.83-10.16-21.79-15.86c-0.34-0.27-0.68-0.55-1.02-0.83c-1.36-1.13-2.71-2.27-4.05-3.43
		c-0.01-0.01-0.02-0.02-0.03-0.03c-6.84-5.93-13.34-12.24-19.46-18.9c-0.02-0.03-0.04-0.04-0.06-0.07
		c-26.9-29.26-45.99-64.83-55.5-103.43c-0.08-0.28-0.14-0.55-0.21-0.82c-4.42-18.31-6.65-37.08-6.64-55.91
		c0-130.83,106.06-236.89,236.89-236.89S376.52-62.22,376.52,68.61z"/>
	
		<linearGradient id="SVGID_1_" gradientUnits="userSpaceOnUse" x1="445.3237" y1="169.2692" x2="483.8314" y2="169.2692" gradientTransform="matrix(1 0 0 -1 -223 325.0858)">
		<stop  offset="0" style="stop-color:#FFFFFF"/>
		<stop  offset="1" style="stop-color:#FFFFFF;stop-opacity:0.3"/>
	</linearGradient>
	<path class="st3" d="M223.18,178.19l14.63-17.12l14.63-17.12l8.26-9.67c0.46-0.53-0.25-1.37-0.7-0.83l-14.63,17.12l-14.63,17.12
		l-8.26,9.67C222.01,177.89,222.72,178.72,223.18,178.19L223.18,178.19z"/>
	<circle class="st4" cx="152.27" cy="141.19" r="1.59"/>
	<polygon class="st0" points="166.02,164.21 165.23,164.99 164.45,164.2 163.92,164.72 164.7,165.52 163.91,166.3 164.44,166.83 
		165.23,166.04 166.02,166.84 166.54,166.31 165.76,165.52 166.55,164.73 	"/>
	<polygon class="st0" points="172.37,118.2 171.58,118.98 170.79,118.19 170.26,118.72 171.05,119.51 170.26,120.29 170.78,120.82 
		171.57,120.04 172.36,120.83 172.89,120.3 172.1,119.51 172.89,118.72 	"/>
	<path class="st0" d="M192.31,30.89c-1.71,1.14-3.47-1.58-1.72-2.67C192.31,27.08,194.06,29.8,192.31,30.89z"/>
	<polygon class="st0" points="93.07,148.96 91.98,148.72 92.22,147.63 91.5,147.47 91.26,148.56 90.17,148.32 90.01,149.05 
		91.1,149.29 90.86,150.38 91.59,150.54 91.83,149.45 92.92,149.69 	"/>
	<polygon class="st0" points="259.86,18.1 258.77,17.86 259.01,16.77 258.28,16.61 258.05,17.7 256.96,17.47 256.8,18.19 
		257.89,18.43 257.65,19.52 258.37,19.68 258.61,18.59 259.7,18.83 	"/>
	<polygon class="st0" points="345.03,88.63 343.94,88.39 344.18,87.3 343.45,87.14 343.21,88.24 342.12,88 341.97,88.72 
		343.06,88.96 342.82,90.05 343.54,90.21 343.78,89.12 344.87,89.36 	"/>
	<polygon class="st0" points="139.16,35.3 138.07,35.07 138.31,33.98 137.59,33.82 137.35,34.91 136.26,34.67 136.1,35.39 
		137.19,35.63 136.95,36.72 137.68,36.88 137.92,35.79 139,36.03 	"/>
	<circle class="st4" cx="242.47" cy="69.92" r="1.59"/>
	<polygon class="st0" points="230.59,93.96 229.5,93.72 229.73,92.63 229.01,92.47 228.77,93.56 227.68,93.32 227.52,94.05 
		228.61,94.29 228.37,95.38 229.1,95.53 229.34,94.44 230.43,94.68 	"/>
	<polygon class="st0" points="272.68,74.34 271.59,74.1 271.83,73.01 271.11,72.85 270.87,73.94 269.78,73.7 269.62,74.43 
		270.71,74.67 270.47,75.76 271.2,75.92 271.43,74.83 272.52,75.07 	"/>
	
		<linearGradient id="SVGID_2_" gradientUnits="userSpaceOnUse" x1="421.37" y1="264.1967" x2="459.8777" y2="264.1967" gradientTransform="matrix(1 0 0 -1 -223 325.0858)">
		<stop  offset="0" style="stop-color:#FFFFFF"/>
		<stop  offset="1" style="stop-color:#FFFFFF;stop-opacity:0.3"/>
	</linearGradient>
	<path class="st5" d="M199.22,83.26l14.63-17.12l14.63-17.12l8.26-9.67c0.46-0.53-0.25-1.37-0.7-0.83L221.4,55.64l-14.63,17.12
		l-8.26,9.67C198.06,82.96,198.77,83.8,199.22,83.26L199.22,83.26z"/>
	
		<linearGradient id="SVGID_3_" gradientUnits="userSpaceOnUse" x1="450.52" y1="93.5155" x2="489.0278" y2="93.5155" gradientTransform="matrix(1 0 0 -1 -223 325.0858)">
		<stop  offset="0" style="stop-color:#FFFFFF"/>
		<stop  offset="1" style="stop-color:#FFFFFF;stop-opacity:0.3"/>
	</linearGradient>
	<path class="st6" d="M228.37,253.94L243,236.82l14.63-17.12l8.26-9.67c0.46-0.53-0.25-1.37-0.7-0.83l-14.63,17.12l-14.63,17.12
		l-8.26,9.67C227.21,253.64,227.92,254.48,228.37,253.94L228.37,253.94z"/>
	
		<linearGradient id="SVGID_4_" gradientUnits="userSpaceOnUse" x1="315.6652" y1="135.7065" x2="354.173" y2="135.7065" gradientTransform="matrix(1 0 0 -1 -223 325.0858)">
		<stop  offset="0" style="stop-color:#FFFFFF"/>
		<stop  offset="1" style="stop-color:#FFFFFF;stop-opacity:0.3"/>
	</linearGradient>
	<path class="st7" d="M93.52,211.75l14.63-17.12l14.63-17.12l8.26-9.67c0.46-0.53-0.25-1.37-0.7-0.83l-14.63,17.12l-14.63,17.12
		l-8.26,9.67C92.36,211.45,93.06,212.29,93.52,211.75L93.52,211.75z"/>
	
		<linearGradient id="SVGID_5_" gradientUnits="userSpaceOnUse" x1="411.4622" y1="172.4552" x2="449.97" y2="172.4552" gradientTransform="matrix(1 0 0 -1 -223 325.0858)">
		<stop  offset="0" style="stop-color:#FFFFFF"/>
		<stop  offset="1" style="stop-color:#FFFFFF;stop-opacity:0.3"/>
	</linearGradient>
	<path class="st8" d="M189.32,175l14.63-17.12l14.63-17.12l8.26-9.67c0.46-0.53-0.25-1.37-0.7-0.83l-14.63,17.12l-14.63,17.12
		l-8.26,9.67C188.15,174.7,188.86,175.54,189.32,175L189.32,175z"/>
	<polygon class="st0" points="213.24,152.59 212.15,152.35 212.39,151.26 211.66,151.1 211.42,152.19 210.33,151.95 210.18,152.68 
		211.27,152.91 211.03,154 211.75,154.16 211.99,153.07 213.08,153.31 	"/>
	<circle class="st4" cx="180.99" cy="230.09" r="1.59"/>
</g>
<g id="moon">
	<circle class="st0" cx="85.4" cy="104.78" r="47.74"/>
	<circle class="st9" cx="80.71" cy="71.91" r="5.48"/>
	<circle class="st9" cx="90.1" cy="126.69" r="5.48"/>
	<circle class="st9" cx="111.23" cy="96.17" r="3.91"/>
	<circle class="st9" cx="66.62" cy="108.69" r="12.52"/>
</g>
</svg>
