<?xml version="1.0" encoding="utf-8"?>
<!-- Generator: Adobe Illustrator 24.1.2, SVG Export Plug-In . SVG Version: 6.00 Build 0)  -->
<svg version="1.1" id="Layer_1" xmlns="http://www.w3.org/2000/svg" xmlns:xlink="http://www.w3.org/1999/xlink" x="0px" y="0px"
	 viewBox="0 0 500 500" style="enable-background:new 0 0 500 500;" xml:space="preserve">
<style type="text/css">
	.st0{fill:#F7DF1E;}
</style>
<g>
	<rect x="67.5" y="67.5" class="st0" width="365" height="365"/>
	<path d="M163.47,372.52l27.93-16.9c5.39,9.55,10.29,17.64,22.05,17.64c11.27,0,18.38-4.41,18.38-21.56V235.07h34.3v117.11
		c0,35.53-20.82,51.7-51.21,51.7C187.48,403.88,171.56,389.67,163.47,372.52"/>
	<path d="M284.76,368.85l27.93-16.17c7.35,12.01,16.91,20.83,33.81,20.83c14.21,0,23.28-7.11,23.28-16.91
		c0-11.76-9.31-15.93-24.99-22.78l-8.57-3.68c-24.75-10.53-41.16-23.76-41.16-51.7c0-25.73,19.6-45.33,50.23-45.33
		c21.81,0,37.49,7.6,48.76,27.44l-26.71,17.15c-5.88-10.53-12.25-14.7-22.05-14.7c-10.05,0-16.42,6.37-16.42,14.7
		c0,10.29,6.37,14.46,21.07,20.83l8.57,3.67c29.16,12.5,45.57,25.24,45.57,53.9c0,30.87-24.26,47.78-56.84,47.78
		C315.39,403.88,294.81,388.69,284.76,368.85"/>
</g>
</svg>
