<?xml version="1.0" encoding="utf-8"?>
<!-- Generator: Adobe Illustrator 24.1.2, SVG Export Plug-In . SVG Version: 6.00 Build 0)  -->
<svg version="1.1" id="Layer_1" xmlns="http://www.w3.org/2000/svg" xmlns:xlink="http://www.w3.org/1999/xlink" x="0px" y="0px"
	 viewBox="0 0 512 512" style="enable-background:new 0 0 512 512;" xml:space="preserve">
<style type="text/css">
	.st0{fill:url(#SVGID_1_);}
	.st1{fill:url(#SVGID_2_);}
</style>
<g>
	
		<linearGradient id="SVGID_1_" gradientUnits="userSpaceOnUse" x1="-423.513" y1="131.1008" x2="-421.5081" y2="131.1008" gradientTransform="matrix(126.2799 125.5782 125.2988 -126.5615 37102.4219 69824.6641)">
		<stop  offset="0" style="stop-color:#387EB8"/>
		<stop  offset="1" style="stop-color:#366994"/>
	</linearGradient>
	<path class="st0" d="M254.2,1.3c-130,0-121.9,56.4-121.9,56.4l0.1,58.4h124v17.5H83.2c0,0-83.2-9.4-83.2,121.7
		s72.6,126.5,72.6,126.5h43.3V321c0,0-2.3-72.6,71.4-72.6h123c0,0,69.1,1.1,69.1-66.8V69.3C379.5,69.3,390,1.3,254.2,1.3z
		 M185.8,40.6c12.3,0,22.3,10,22.3,22.3s-10,22.3-22.3,22.3s-22.3-10-22.3-22.3C163.4,50.6,173.4,40.6,185.8,40.6z"/>
	
		<linearGradient id="SVGID_2_" gradientUnits="userSpaceOnUse" x1="-422.9862" y1="130.9189" x2="-420.9814" y2="130.9189" gradientTransform="matrix(135.625 128.783 128.4964 -135.9275 40748.6211 72478.6172)">
		<stop  offset="0" style="stop-color:#FFE052"/>
		<stop  offset="1" style="stop-color:#FFC331"/>
	</linearGradient>
	<path class="st1" d="M257.8,510.7c130,0,121.9-56.4,121.9-56.4l-0.1-58.4h-124v-17.5h173.3c0,0,83.2,9.4,83.2-121.7
		s-72.6-126.5-72.6-126.5h-43.3V191c0,0,2.3,72.6-71.4,72.6h-123c0,0-69.1-1.1-69.1,66.8v112.3C132.5,442.7,122,510.7,257.8,510.7z
		 M326.2,471.4c-12.3,0-22.3-10-22.3-22.3c0-12.3,10-22.3,22.3-22.3c12.3,0,22.3,10,22.3,22.3C348.6,461.4,338.6,471.4,326.2,471.4z
		"/>
</g>
</svg>
