<?xml version="1.0" encoding="utf-8"?>
<!-- Generator: Adobe Illustrator 24.1.2, SVG Export Plug-In . SVG Version: 6.00 Build 0)  -->
<svg version="1.1" id="Layer_1" xmlns="http://www.w3.org/2000/svg" xmlns:xlink="http://www.w3.org/1999/xlink" x="0px" y="0px"
	 viewBox="0 0 512 512" style="enable-background:new 0 0 512 512;" xml:space="preserve">
<style type="text/css">
	.st0{fill:#47C5FB;}
	.st1{fill:#00569E;}
	.st2{fill:#00B5F8;}
	.st3{clip-path:url(#SVGID_2_);}
	.st4{clip-path:url(#SVGID_4_);}
	.st5{clip-path:url(#SVGID_6_);}
</style>
<g>
	<polygon class="st0" points="304.6,0 49.6,255 128.5,333.9 462.4,0 	"/>
	<polyline class="st0" points="302.8,235.1 166.3,371.6 245.5,452 324.3,373.3 462.4,235.1 302.8,235.1 	"/>
	<polyline class="st1" points="245.5,452 305.5,512 462.4,512 324.3,373.3 245.5,452 	"/>
	<polyline class="st2" points="165.4,372.5 244.3,293.6 324.3,373.3 245.5,452 165.4,372.5 	"/>
	<g>
		<g>
			<defs>
				<polyline id="SVGID_1_" points="317.6,379.9 245.5,452 317.6,379.9 317.6,379.9 				"/>
			</defs>
			<clipPath id="SVGID_2_">
				<use xlink:href="#SVGID_1_"  style="overflow:visible;"/>
			</clipPath>
			<g class="st3">
			</g>
		</g>
	</g>
	<g>
		<g>
			<defs>
				<polyline id="SVGID_3_" points="317.6,379.9 245.5,452 311.1,430.3 317.6,379.9 				"/>
			</defs>
			<clipPath id="SVGID_4_">
				<use xlink:href="#SVGID_3_"  style="overflow:visible;"/>
			</clipPath>
			<g class="st4">
			</g>
		</g>
	</g>
	<g>
		<g>
			<defs>
				<polyline id="SVGID_5_" points="317.6,379.9 245.5,452 317.6,379.9 317.6,379.9 				"/>
			</defs>
			<clipPath id="SVGID_6_">
				<use xlink:href="#SVGID_5_"  style="overflow:visible;"/>
			</clipPath>
			<g class="st5">
			</g>
		</g>
	</g>
</g>
</svg>
