<?xml version="1.0" encoding="utf-8"?>
<!-- Generator: Adobe Illustrator 24.1.2, SVG Export Plug-In . SVG Version: 6.00 Build 0)  -->
<svg version="1.1" id="Layer_1" xmlns="http://www.w3.org/2000/svg" xmlns:xlink="http://www.w3.org/1999/xlink" x="0px" y="0px"
	 viewBox="0 0 500 500" style="enable-background:new 0 0 500 500;" xml:space="preserve">
<style type="text/css">
	.st0{fill-rule:evenodd;clip-rule:evenodd;fill:#181616;}
	.st1{fill:#181616;}
</style>
<g id="XMLID_1_">
	<path id="XMLID_3_" class="st0" d="M250,72.01c-100.78,0-182.5,81.7-182.5,182.5c0,80.63,52.29,149.04,124.8,173.17
		c9.12,1.69,12.47-3.96,12.47-8.78c0-4.35-0.17-18.73-0.25-33.98c-50.77,11.04-61.48-21.53-61.48-21.53
		c-8.3-21.09-20.26-26.7-20.26-26.7c-16.56-11.33,1.25-11.09,1.25-11.09C142.35,326.88,152,344.4,152,344.4
		c16.28,27.9,42.69,19.83,53.11,15.17c1.64-11.79,6.37-19.85,11.59-24.4c-40.54-4.61-83.15-20.26-83.15-90.19
		c0-19.92,7.13-36.21,18.81-48.99c-1.89-4.6-8.14-23.16,1.77-48.3c0,0,15.33-4.9,50.2,18.71c14.56-4.04,30.17-6.07,45.68-6.14
		c15.51,0.07,31.13,2.1,45.72,6.14c34.83-23.61,50.14-18.71,50.14-18.71c9.93,25.14,3.69,43.7,1.79,48.3
		c11.7,12.78,18.78,29.06,18.78,48.99c0,70.1-42.69,85.53-83.33,90.05c6.55,5.66,12.38,16.77,12.38,33.8
		c0,24.42-0.21,44.07-0.21,50.08c0,4.86,3.28,10.55,12.53,8.76c72.48-24.16,124.7-92.54,124.7-173.15
		C432.5,153.71,350.79,72.01,250,72.01z"/>
	<path id="XMLID_4_" class="st1" d="M136.62,334.04c-0.4,0.91-1.83,1.18-3.13,0.56c-1.33-0.6-2.07-1.83-1.64-2.74
		c0.39-0.93,1.82-1.19,3.14-0.57C136.32,331.88,137.08,333.13,136.62,334.04z"/>
	<path id="XMLID_5_" class="st1" d="M144.02,342.28c-0.87,0.81-2.57,0.43-3.73-0.84c-1.2-1.27-1.42-2.97-0.53-3.79
		c0.9-0.81,2.55-0.43,3.74,0.84C144.69,339.78,144.92,341.46,144.02,342.28z"/>
	<path id="XMLID_6_" class="st1" d="M151.21,352.79c-1.12,0.78-2.95,0.05-4.08-1.57c-1.12-1.62-1.12-3.57,0.03-4.35
		c1.13-0.78,2.93-0.08,4.08,1.53C152.35,350.05,152.35,352,151.21,352.79z"/>
	<path id="XMLID_7_" class="st1" d="M161.07,362.95c-1,1.1-3.13,0.81-4.69-0.7c-1.6-1.47-2.04-3.56-1.04-4.66
		c1.02-1.1,3.16-0.79,4.73,0.7C161.65,359.75,162.13,361.85,161.07,362.95z"/>
	<path id="XMLID_8_" class="st1" d="M174.67,368.84c-0.44,1.43-2.49,2.08-4.56,1.47c-2.07-0.63-3.41-2.3-3-3.74
		c0.43-1.44,2.49-2.12,4.57-1.47C173.74,365.73,175.1,367.39,174.67,368.84z"/>
	<path id="XMLID_9_" class="st1" d="M189.6,369.93c0.05,1.5-1.7,2.75-3.87,2.78c-2.18,0.05-3.95-1.17-3.97-2.65
		c0-1.52,1.71-2.75,3.9-2.79C187.82,367.23,189.6,368.44,189.6,369.93z"/>
	<path id="XMLID_10_" class="st1" d="M203.5,367.57c0.26,1.47-1.25,2.98-3.4,3.38c-2.12,0.39-4.08-0.52-4.35-1.97
		c-0.26-1.51,1.27-3.01,3.39-3.4C201.29,365.19,203.23,366.08,203.5,367.57z"/>
</g>
</svg>
