<?xml version="1.0" encoding="utf-8"?>
<!-- Generator: Adobe Illustrator 24.1.2, SVG Export Plug-In . SVG Version: 6.00 Build 0)  -->
<svg version="1.1" id="Layer_1" xmlns="http://www.w3.org/2000/svg" xmlns:xlink="http://www.w3.org/1999/xlink" x="0px" y="0px"
	 viewBox="0 0 500 500" style="enable-background:new 0 0 500 500;" xml:space="preserve">
<style type="text/css">
	.st0{fill:#E44D26;}
	.st1{fill:#F16529;}
	.st2{fill:#EBEBEB;}
	.st3{fill:#FFFFFF;}
</style>
<g id="XMLID_1_">
	<polygon id="XMLID_11_" class="st0" points="145.69,401.09 122.48,140.75 377.52,140.75 354.29,401.04 249.84,430 	"/>
	<polygon id="XMLID_10_" class="st1" points="250,407.87 334.4,384.47 354.25,162.03 250,162.03 	"/>
	<polygon id="XMLID_9_" class="st2" points="250,258.59 207.75,258.59 204.83,225.89 250,225.89 250,193.96 249.89,193.96 
		169.94,193.96 170.7,202.53 178.55,290.52 250,290.52 	"/>
	<polygon id="XMLID_8_" class="st2" points="250,341.51 249.86,341.55 214.3,331.95 212.03,306.48 194.75,306.48 179.98,306.48 
		184.45,356.62 249.85,374.77 250,374.73 	"/>
	<path id="XMLID_7_" d="M146.21,70h16.23v16.03h14.84V70h16.23v48.55h-16.23v-16.26h-14.84v16.26h-16.23L146.21,70L146.21,70z"/>
	<path id="XMLID_6_" d="M214.84,86.1h-14.28V70h44.8v16.1h-14.29v32.45h-16.23L214.84,86.1L214.84,86.1z"/>
	<path id="XMLID_5_" d="M252.47,70h16.92l10.41,17.06L290.19,70h16.93v48.55h-16.16V94.48l-11.16,17.26h-0.28l-11.17-17.26v24.06
		h-15.88V70z"/>
	<path id="XMLID_4_" d="M315.19,70h16.23v32.5h22.82v16.05h-39.05V70z"/>
	<polygon id="XMLID_3_" class="st3" points="249.89,258.59 249.89,290.52 289.21,290.52 285.5,331.93 249.89,341.54 249.89,374.76 
		315.35,356.62 315.83,351.22 323.33,267.16 324.11,258.59 315.5,258.59 	"/>
	<polygon id="XMLID_2_" class="st3" points="249.89,193.96 249.89,213.8 249.89,225.82 249.89,225.89 326.91,225.89 326.91,225.89 
		327.01,225.89 327.65,218.72 329.11,202.53 329.87,193.96 	"/>
</g>
</svg>
