<?xml version="1.0" encoding="utf-8"?>
<!-- Generator: Adobe Illustrator 24.1.2, SVG Export Plug-In . SVG Version: 6.00 Build 0)  -->
<svg version="1.1" id="Layer_1" xmlns="http://www.w3.org/2000/svg" xmlns:xlink="http://www.w3.org/1999/xlink" x="0px" y="0px"
	 viewBox="0 0 500 500" style="enable-background:new 0 0 500 500;" xml:space="preserve">
<style type="text/css">
	.st0{fill:#EB7077;}
	.st1{fill:#F6A2AD;}
</style>
<g>
	<path class="st0" d="M157.59,162.44c1.32-2.25,3.04-4.4,5.51-5.46c1.01-0.18,2.03-0.09,3.04-0.09h49.86
		c-1.45,1.23-2.86,2.51-3.83,4.18c-2.55,4.18-4.27,8.85-5.86,13.52c-4.49,14.09-7.62,28.59-10.66,43.08
		c-1.37,6.56-2.69,13.17-3.92,19.73c-3.79,21.49-7.71,42.94-12.6,64.22c-2.33,9.82-4.71,19.64-8.32,29.11
		c-1.67,3.92-3.3,8.1-6.52,11.01c-0.75,0.66-1.5,1.5-2.55,1.37h-44.05c-3-0.09-5.95,0.18-8.94-0.13c1.98-1.54,3.74-3.39,4.89-5.59
		c3.3-6.3,5.37-13.13,7.36-19.91c3.08-10.92,5.55-21.98,7.88-33.03c1.45-7.27,3.17-14.49,4.23-21.8c1.19-8.15,3-16.21,4.45-24.31
		c2.29-11.94,4.71-23.87,7.4-35.72c2.16-9.25,4.36-18.46,7.31-27.48C153.71,170.76,155.3,166.45,157.59,162.44z"/>
	<path class="st0" d="M157.59,162.44l0.06,0.03c1.32-2.24,3.03-4.39,5.47-5.43l-0.03-0.06l0.01,0.07c0.5-0.09,1-0.11,1.51-0.11
		c0.5,0,1.01,0.02,1.52,0.02h49.86v-0.07l-0.04-0.05c-1.45,1.23-2.87,2.52-3.85,4.2l0.06,0.03l-0.06-0.03
		c-2.56,4.19-4.28,8.87-5.86,13.54l0,0c-4.49,14.1-7.62,28.59-10.66,43.08c-1.37,6.56-2.69,13.17-3.92,19.73
		c-3.79,21.49-7.71,42.94-12.6,64.22c-2.33,9.82-4.71,19.64-8.32,29.11l0.06,0.02l-0.06-0.03c-1.67,3.92-3.3,8.1-6.5,10.99
		c-0.7,0.62-1.39,1.36-2.29,1.36l-0.21-0.01l0,0h-44.05v0.07l0-0.07c-0.47-0.01-0.94-0.02-1.42-0.02c-1.33,0-2.66,0.04-3.99,0.04
		c-1.18,0-2.35-0.03-3.53-0.15l-0.01,0.07l0.04,0.05c1.99-1.55,3.76-3.4,4.91-5.62c3.31-6.31,5.38-13.14,7.36-19.92
		c3.08-10.93,5.55-21.98,7.89-33.04c1.45-7.27,3.17-14.49,4.23-21.81c1.19-8.15,2.99-16.2,4.45-24.31
		c2.29-11.94,4.71-23.87,7.4-35.72c2.16-9.25,4.36-18.45,7.31-27.48c1.45-4.36,3.04-8.67,5.32-12.67L157.59,162.44l-0.06-0.03
		c-2.29,4.01-3.88,8.34-5.33,12.7c-2.95,9.03-5.15,18.24-7.31,27.49c-2.69,11.85-5.11,23.79-7.4,35.72
		c-1.45,8.1-3.26,16.16-4.45,24.32c-1.06,7.31-2.77,14.53-4.23,21.8c-2.33,11.05-4.8,22.11-7.88,33.03
		c-1.98,6.78-4.05,13.6-7.35,19.9c-1.14,2.19-2.89,4.03-4.87,5.57l-0.13,0.1l0.17,0.02c1.19,0.12,2.37,0.15,3.55,0.15
		c1.33,0,2.66-0.04,3.99-0.04c0.47,0,0.94,0.01,1.41,0.02h44.05v-0.07l-0.01,0.07l0.23,0.01c0.98,0,1.69-0.79,2.38-1.4
		c3.23-2.92,4.86-7.12,6.54-11.04l0,0l0,0c3.61-9.48,5.99-19.3,8.33-29.12c4.89-21.28,8.81-42.73,12.6-64.22
		c1.23-6.56,2.55-13.17,3.92-19.73c3.04-14.49,6.17-28.98,10.66-43.07l-0.06-0.02l0.06,0.02c1.59-4.67,3.3-9.33,5.85-13.51l0,0l0,0
		c0.96-1.66,2.36-2.93,3.82-4.17l0.14-0.12h-50.04c-0.5,0-1.01-0.02-1.52-0.02c-0.51,0-1.02,0.02-1.53,0.11l-0.01,0l-0.01,0
		c-2.49,1.07-4.21,3.24-5.54,5.49L157.59,162.44z"/>
	<path class="st1" d="M215.99,156.89c1.28,0,2.55-0.04,3.83,0c2.82,1.5,5.2,3.88,6.52,6.83c1.76,3.35,3.22,6.87,4.54,10.48
		c4.4,13.61,7.4,27.62,10.39,41.58c2.55,12.51,4.98,25.06,7.27,37.66c0.18,0.66-0.04,1.59,0.84,1.76
		c-3.17,16.56-6.3,33.17-10.26,49.6c-2.16,8.85-4.45,17.66-7.71,26.21c-1.76,4.27-3.57,8.94-7.31,11.98
		c-2.38,0.53-4.1-1.28-5.55-2.91c-2.51-3.22-4.05-7-5.55-10.79c-4.98-13.57-8.02-27.7-11.1-41.8c-2.33-10.97-4.4-22.02-6.56-33.03
		c-0.97-5.59-2.29-11.1-3.04-16.69c-0.13-0.09-0.44-0.26-0.57-0.35c1.23-6.56,2.55-13.17,3.92-19.73
		c3.04-14.49,6.17-28.98,10.66-43.08c1.59-4.67,3.3-9.34,5.86-13.52C213.13,159.4,214.54,158.12,215.99,156.89z"/>
	<path class="st1" d="M215.99,156.89v0.07c0.85,0,1.7-0.02,2.55-0.02c0.43,0,0.85,0,1.27,0.02l0-0.07l-0.03,0.06
		c2.81,1.49,5.17,3.86,6.49,6.8l0,0l0,0c1.76,3.34,3.21,6.86,4.53,10.47l0.06-0.02l-0.06,0.02c4.4,13.61,7.4,27.61,10.39,41.57
		c2.55,12.51,4.98,25.06,7.27,37.66l0,0l0,0c0.09,0.32,0.07,0.71,0.15,1.06c0.08,0.35,0.27,0.66,0.73,0.75l0.01-0.07l-0.07-0.01
		c-3.17,16.56-6.3,33.17-10.26,49.59c-2.16,8.85-4.45,17.66-7.71,26.2c-1.76,4.27-3.57,8.93-7.29,11.95l0.04,0.05l-0.01-0.07
		c-0.28,0.06-0.56,0.09-0.82,0.09c-1.92,0-3.39-1.54-4.66-2.98l-0.05,0.04l0.05-0.04c-2.5-3.21-4.04-6.99-5.54-10.77
		c-4.97-13.56-8.01-27.69-11.1-41.79c-2.33-10.97-4.4-22.02-6.56-33.03l-0.07,0.01l0.07-0.01c-0.97-5.6-2.29-11.1-3.04-16.69l0-0.03
		l-0.03-0.02c-0.14-0.09-0.44-0.27-0.57-0.35l-0.04,0.06l0.07,0.01c1.23-6.56,2.55-13.17,3.92-19.73
		c3.04-14.49,6.17-28.98,10.66-43.07l-0.06-0.02l0.06,0.02c1.59-4.67,3.3-9.33,5.85-13.51l0,0l0,0c0.96-1.66,2.36-2.93,3.82-4.17
		L215.99,156.89v0.07V156.89l-0.04-0.05c-1.45,1.23-2.87,2.52-3.85,4.2l0.06,0.03l-0.06-0.03c-2.56,4.19-4.28,8.87-5.86,13.54l0,0
		c-4.49,14.1-7.62,28.59-10.66,43.08c-1.37,6.56-2.69,13.17-3.92,19.73l-0.01,0.04l0.04,0.02c0.14,0.09,0.44,0.27,0.57,0.35
		l0.04-0.06l-0.07,0.01c0.75,5.6,2.07,11.1,3.04,16.7l0,0l0,0c2.16,11.01,4.23,22.07,6.56,33.04c3.08,14.09,6.12,28.24,11.1,41.81
		c1.5,3.79,3.04,7.58,5.56,10.81l0,0l0,0c1.28,1.43,2.77,3.02,4.76,3.02c0.27,0,0.56-0.03,0.85-0.1l0.02,0l0.01-0.01
		c3.76-3.05,5.57-7.74,7.33-12.01c3.26-8.55,5.55-17.36,7.71-26.22c3.96-16.43,7.09-33.04,10.26-49.6l0.01-0.07l-0.07-0.01
		c-0.41-0.09-0.55-0.32-0.63-0.65c-0.08-0.32-0.06-0.72-0.15-1.06l-0.06,0.02l0.07-0.01c-2.29-12.6-4.71-25.15-7.27-37.66
		c-3-13.96-5.99-27.97-10.4-41.59l0,0l0,0c-1.32-3.61-2.78-7.14-4.54-10.49l-0.06,0.03l0.06-0.03c-1.33-2.97-3.72-5.35-6.55-6.86
		l-0.01-0.01l-0.02,0c-0.43-0.01-0.85-0.02-1.28-0.02c-0.85,0-1.7,0.02-2.55,0.02h-0.02l-0.02,0.02L215.99,156.89z"/>
	<path class="st0" d="M271.09,164.51c1.59-3.04,3.52-6.43,6.96-7.58c17.49-0.09,34.97-0.04,52.46-0.04
		c-1.63,1.63-3.35,3.26-4.45,5.33c-3.39,6.08-5.37,12.82-7.4,19.47c-5.2,18.32-8.85,37.04-12.33,55.76
		c-3.22,18.46-6.65,36.91-10.57,55.28c-2.03,9.25-4.14,18.46-6.83,27.57c-1.72,5.64-3.52,11.32-6.34,16.56
		c-1.37,2.38-2.95,4.98-5.55,6.21c-16.69,0.13-33.43,0-50.12,0.04c-0.93,0-1.89,0-2.82-0.13c3.74-3.04,5.55-7.71,7.31-11.98
		c3.26-8.54,5.55-17.35,7.71-26.21c3.96-16.43,7.09-33.03,10.26-49.6c3.83-21.36,7.84-42.72,12.95-63.82
		C264.71,182.26,267,173.01,271.09,164.51z"/>
	<path class="st0" d="M271.09,164.51l0.06,0.03c1.58-3.04,3.52-6.41,6.92-7.54l-0.02-0.06l0,0.07c8.74-0.04,17.49-0.06,26.23-0.06
		c8.74,0,17.49,0.01,26.23,0.01v-0.07l-0.05-0.05c-1.63,1.63-3.35,3.26-4.46,5.35l0.06,0.03l-0.06-0.03
		c-3.4,6.09-5.38,12.83-7.41,19.48l0,0c-5.2,18.33-8.85,37.05-12.33,55.77c-3.22,18.46-6.65,36.91-10.57,55.28
		c-2.03,9.25-4.14,18.45-6.83,27.57c-1.72,5.64-3.52,11.31-6.34,16.55c-1.36,2.38-2.94,4.96-5.52,6.18l0.03,0.06l0-0.07
		c-5.93,0.05-11.86,0.06-17.79,0.06c-8.19,0-16.38-0.03-24.56-0.03c-2.59,0-5.18,0-7.77,0.01c-0.92,0-1.89,0-2.81-0.13l-0.01,0.07
		l0.04,0.05c3.76-3.05,5.57-7.74,7.33-12.01c3.26-8.55,5.55-17.36,7.71-26.22c3.96-16.43,7.09-33.04,10.26-49.6
		c3.83-21.36,7.84-42.72,12.95-63.82c2.38-9.12,4.67-18.36,8.76-26.85L271.09,164.51l0.06,0.03L271.09,164.51l-0.06-0.03
		c-4.1,8.51-6.39,17.76-8.77,26.88c-5.11,21.1-9.12,42.46-12.95,63.83c-3.17,16.56-6.3,33.16-10.26,49.59
		c-2.16,8.85-4.45,17.66-7.71,26.2c-1.76,4.27-3.57,8.93-7.29,11.95l-0.12,0.1l0.15,0.02c0.93,0.13,1.9,0.13,2.83,0.13
		c2.59-0.01,5.18-0.01,7.77-0.01c8.18,0,16.37,0.03,24.56,0.03c5.93,0,11.87-0.01,17.79-0.06l0.01,0l0.01-0.01
		c2.62-1.25,4.21-3.86,5.58-6.24c2.82-5.25,4.63-10.94,6.35-16.57c2.69-9.12,4.8-18.33,6.83-27.58
		c3.92-18.37,7.36-36.82,10.57-55.28c3.48-18.72,7.13-37.44,12.33-55.75l-0.06-0.02l0.06,0.02c2.03-6.65,4.01-13.39,7.39-19.46l0,0
		c1.09-2.06,2.81-3.68,4.44-5.31l0.11-0.11h-0.16c-8.74,0-17.49-0.01-26.23-0.01c-8.74,0-17.49,0.01-26.23,0.06h-0.01l-0.01,0
		c-3.47,1.16-5.41,4.57-7,7.61l0,0l0,0L271.09,164.51z"/>
	<path class="st1" d="M330.51,156.89c1.41,0,2.86-0.04,4.27,0c2.29,1.19,3.92,3.22,5.37,5.29c2.38,3.79,3.88,8.06,5.42,12.24
		c3.66,11.23,6.39,22.77,8.9,34.31c3.35,15.55,6.25,31.18,9.12,46.82c0.7,3.74,1.41,7.53,1.85,11.32c0.18,0.18,0.53,0.53,0.66,0.66
		c-1.59,2.2-2.2,4.85-3.08,7.36c-2.77,8.94-4.58,18.19-6.12,27.4c-1.19,7.22-2.82,14.4-5.07,21.36c-1.67,5.15-3.7,10.26-7.05,14.58
		c-1.59,2.07-3.74,3.66-6.12,4.71c-3.66,0.4-5.81-3.13-7.58-5.73c-3.66-6.39-5.64-13.52-7.75-20.48
		c-6.96-25.77-11.5-52.15-16.38-78.36c-0.04-0.4-0.26-0.75-0.62-0.92c3.48-18.72,7.14-37.44,12.33-55.76
		c2.03-6.65,4.01-13.39,7.4-19.47C327.16,160.15,328.88,158.52,330.51,156.89z"/>
	<path class="st1" d="M330.51,156.89v0.07c0.94,0,1.9-0.02,2.85-0.02c0.48,0,0.95,0,1.42,0.02l0-0.07l-0.03,0.06
		c2.27,1.18,3.9,3.2,5.35,5.26l0.05-0.04l-0.06,0.04c2.37,3.78,3.87,8.05,5.41,12.23l0.06-0.02l-0.06,0.02
		c3.65,11.23,6.38,22.77,8.9,34.3c3.35,15.55,6.25,31.18,9.12,46.82c0.7,3.74,1.41,7.53,1.85,11.32l0,0.02l0.02,0.02
		c0.18,0.18,0.53,0.53,0.66,0.66l0.05-0.05l-0.05-0.04c-1.6,2.22-2.21,4.87-3.09,7.37l0,0c-2.78,8.95-4.58,18.2-6.12,27.41
		c-1.19,7.22-2.82,14.4-5.06,21.35c-1.67,5.15-3.7,10.25-7.04,14.56c-1.58,2.06-3.73,3.64-6.1,4.69l0.03,0.06l-0.01-0.07
		c-0.19,0.02-0.37,0.03-0.55,0.03c-3.27,0.01-5.29-3.26-6.96-5.73l-0.06,0.04l0.06-0.03c-3.65-6.38-5.63-13.51-7.75-20.47
		l-0.06,0.02l0.06-0.02c-6.96-25.76-11.49-52.14-16.38-78.35l-0.07,0.01l0.07-0.01c-0.05-0.42-0.28-0.79-0.65-0.98l-0.03,0.06
		l0.07,0.01c3.48-18.72,7.13-37.44,12.33-55.76l-0.06-0.02l0.06,0.02c2.03-6.65,4.01-13.39,7.39-19.46l0,0
		c1.09-2.06,2.81-3.68,4.44-5.31L330.51,156.89v0.07V156.89l-0.05-0.05c-1.63,1.63-3.35,3.26-4.46,5.35l0.06,0.03l-0.06-0.03
		c-3.4,6.09-5.38,12.83-7.41,19.48l0,0c-5.2,18.33-8.85,37.05-12.33,55.77l-0.01,0.05l0.05,0.02c0.33,0.16,0.54,0.5,0.58,0.87l0,0
		l0,0c4.89,26.21,9.43,52.59,16.39,78.36l0,0l0,0c2.11,6.96,4.1,14.1,7.76,20.49l0,0l0,0c1.67,2.46,3.7,5.78,7.07,5.79
		c0.19,0,0.37-0.01,0.57-0.03l0.01,0l0.01,0c2.39-1.06,4.55-2.65,6.15-4.73c3.35-4.33,5.38-9.44,7.06-14.6
		c2.25-6.96,3.88-14.15,5.07-21.37c1.54-9.2,3.35-18.45,6.12-27.39l-0.06-0.02l0.06,0.02c0.88-2.52,1.5-5.15,3.07-7.34l0.03-0.05
		l-0.04-0.04c-0.13-0.13-0.48-0.48-0.66-0.66l-0.05,0.05l0.07-0.01c-0.44-3.79-1.15-7.58-1.85-11.32
		c-2.86-15.64-5.77-31.27-9.12-46.82c-2.51-11.54-5.24-23.08-8.9-34.32l0,0l0,0c-1.54-4.18-3.04-8.46-5.42-12.26l0,0l0,0
		c-1.46-2.07-3.09-4.11-5.4-5.31l-0.01-0.01l-0.02,0c-0.47-0.01-0.95-0.02-1.42-0.02c-0.95,0-1.91,0.02-2.85,0.02h-0.03l-0.02,0.02
		L330.51,156.89z"/>
	<path class="st1" d="M67.52,257.09c1.15-0.09,2.29-0.26,3.48-0.26H119c2.03,0.26,4.14,0.09,6.08,0.97
		c2.82,1.15,5.33,3.08,7.18,5.51c0.22-0.13,0.62-0.48,0.84-0.66c-1.06,7.31-2.77,14.54-4.23,21.8c-2.33,11.06-4.8,22.11-7.88,33.03
		c-1.98,6.78-4.05,13.61-7.36,19.91c-1.15,2.2-2.91,4.05-4.89,5.59c-0.75,0.13-1.32-0.4-1.94-0.79c-2.07-1.32-3.26-3.61-4.54-5.68
		c-6.03-13.74-6.69-28.94-10.44-43.3c-1.89-7.18-4.23-14.31-7.66-20.92c-2.11-3.96-4.71-7.75-8.1-10.79
		C73.55,259.47,70.64,257.84,67.52,257.09z"/>
	<path class="st1" d="M67.52,257.09l0.01,0.07c1.15-0.09,2.29-0.26,3.47-0.26H119v-0.07l-0.01,0.07c2.04,0.26,4.14,0.09,6.06,0.96
		l0,0l0,0c2.81,1.14,5.31,3.07,7.15,5.48l0.04,0.05l0.05-0.03c0.23-0.14,0.63-0.49,0.84-0.67l-0.04-0.05l-0.07-0.01
		c-1.06,7.31-2.77,14.53-4.23,21.8c-2.33,11.05-4.8,22.11-7.88,33.03c-1.98,6.78-4.05,13.6-7.35,19.9
		c-1.14,2.19-2.89,4.03-4.87,5.57l0.04,0.05l-0.01-0.07l-0.22,0.02c-0.6,0-1.11-0.44-1.67-0.8c-2.05-1.31-3.24-3.59-4.52-5.66
		l-0.06,0.04l0.06-0.03c-6.03-13.73-6.69-28.92-10.44-43.29c-1.89-7.18-4.23-14.32-7.67-20.94c-2.12-3.97-4.72-7.76-8.12-10.81l0,0
		l0,0c-2.52-2.03-5.43-3.67-8.57-4.42L67.52,257.09l0.01,0.07L67.52,257.09l-0.02,0.07c3.11,0.75,6.01,2.37,8.52,4.39l0.04-0.05
		l-0.04,0.05c3.38,3.03,5.98,6.81,8.09,10.77c3.43,6.6,5.76,13.73,7.66,20.91c3.74,14.35,4.4,29.55,10.44,43.31l0,0l0,0
		c1.28,2.07,2.47,4.37,4.56,5.7c0.54,0.35,1.07,0.82,1.74,0.82l0.25-0.02l0.02,0l0.01-0.01c1.99-1.55,3.76-3.4,4.91-5.62
		c3.31-6.31,5.38-13.14,7.36-19.92c3.08-10.93,5.55-21.98,7.89-33.04c1.45-7.27,3.17-14.49,4.23-21.81l0.02-0.17l-0.13,0.11
		c-0.22,0.18-0.62,0.53-0.83,0.66l0.03,0.06l0.05-0.04c-1.86-2.43-4.38-4.38-7.21-5.53l-0.03,0.06l0.03-0.06
		c-1.96-0.89-4.08-0.71-6.1-0.97l0,0H71c-1.2,0-2.34,0.18-3.48,0.26l-0.01,0.13L67.52,257.09z"/>
	<path class="st0" d="M369.98,261.67c2.77-3.13,6.92-5.11,11.1-4.93h36.12c5.02,0.09,10.09-0.18,15.11,0.13
		c-1.5,1.01-3.3,1.41-4.89,2.25c-5.51,2.51-10.22,6.69-13.21,11.94c-4.8,8.37-6.47,17.97-7.88,27.4
		c-1.41,9.25-1.37,18.81-4.36,27.79c-2.03,6.3-5.11,12.64-10.44,16.78c-16.56,0.18-33.12,0.04-49.64,0.09
		c-1.1,0-2.16,0.04-3.22-0.18c2.38-1.06,4.54-2.64,6.12-4.71c3.35-4.32,5.37-9.43,7.05-14.58c2.25-6.96,3.88-14.14,5.07-21.36
		c1.54-9.21,3.35-18.46,6.12-27.4c0.88-2.51,1.5-5.15,3.08-7.36C367.42,265.59,368.3,263.35,369.98,261.67z"/>
	<path class="st0" d="M369.98,261.67l0.05,0.04c2.65-2.99,6.55-4.92,10.53-4.92c0.17,0,0.34,0,0.51,0.01h0h36.12
		c0.79,0.01,1.58,0.02,2.38,0.02c2.25,0,4.5-0.04,6.75-0.04c1.99,0,3.99,0.03,5.97,0.15l0-0.07l-0.04-0.06
		c-1.48,1-3.29,1.4-4.88,2.24l0.03,0.06l-0.03-0.06c-5.52,2.52-10.24,6.71-13.24,11.96c-4.81,8.38-6.48,17.99-7.89,27.42
		c-1.41,9.26-1.37,18.81-4.36,27.78c-2.02,6.29-5.1,12.62-10.42,16.75l0.04,0.05l0-0.07c-7.17,0.08-14.34,0.09-21.51,0.09
		c-6.73,0-13.46-0.02-20.18-0.02c-2.65,0-5.3,0-7.95,0.01c-0.31,0-0.63,0-0.93,0c-0.77,0-1.52-0.02-2.27-0.18l-0.01,0.07l0.03,0.06
		c2.39-1.06,4.55-2.65,6.15-4.73c3.35-4.33,5.38-9.44,7.06-14.6c2.25-6.96,3.88-14.15,5.07-21.37c1.54-9.2,3.35-18.45,6.12-27.39
		l-0.06-0.02l0.06,0.02c0.88-2.52,1.5-5.15,3.07-7.34c1.33-1.95,2.21-4.19,3.87-5.85l0,0l0,0L369.98,261.67l-0.05-0.05
		c-1.69,1.69-2.57,3.94-3.88,5.87c-1.59,2.22-2.21,4.87-3.09,7.37l0,0c-2.78,8.95-4.58,18.2-6.12,27.41
		c-1.19,7.22-2.82,14.4-5.06,21.35c-1.67,5.15-3.7,10.25-7.04,14.56c-1.58,2.06-3.73,3.64-6.1,4.69l-0.19,0.08l0.2,0.04
		c0.76,0.16,1.52,0.18,2.29,0.18c0.31,0,0.62,0,0.93,0c2.65-0.01,5.3-0.01,7.95-0.01c6.72,0,13.45,0.02,20.18,0.02
		c7.17,0,14.34-0.02,21.51-0.09l0.02,0l0.02-0.01c5.35-4.15,8.43-10.51,10.46-16.81c3-9,2.95-18.56,4.36-27.8
		c1.41-9.43,3.08-19.02,7.88-27.37c2.99-5.23,7.69-9.4,13.18-11.91l0,0l0,0c1.57-0.83,3.38-1.23,4.9-2.25l0.16-0.11l-0.2-0.01
		c-1.99-0.12-3.98-0.15-5.98-0.15c-2.25,0-4.51,0.04-6.75,0.04c-0.79,0-1.58-0.01-2.38-0.02h-36.12v0.07l0-0.07
		c-0.17-0.01-0.35-0.01-0.52-0.01c-4.03,0-7.96,1.95-10.63,4.97L369.98,261.67l-0.05-0.05L369.98,261.67z"/>
</g>
</svg>
