<?xml version="1.0" encoding="utf-8"?>
<!-- Generator: Adobe Illustrator 24.1.2, SVG Export Plug-In . SVG Version: 6.00 Build 0)  -->
<svg version="1.1" id="Layer_1" xmlns="http://www.w3.org/2000/svg" xmlns:xlink="http://www.w3.org/1999/xlink" x="0px" y="0px"
	 viewBox="0 0 500 500" style="enable-background:new 0 0 500 500;" xml:space="preserve">
<style type="text/css">
	.st0{fill:#6A7E91;}
	.st1{fill:#FA8A3B;}
	.st2{fill-rule:evenodd;clip-rule:evenodd;fill:#FA8A3B;}
	.st3{fill-rule:evenodd;clip-rule:evenodd;fill:#6A7E91;}
</style>
<g id="XMLID_1_">
	<path id="XMLID_4_" class="st0" d="M155.25,351.88h-14.08c-0.5-23.77-1.87-46.12-4.11-67.06h-0.12l-21.44,67.06h-10.72
		l-21.31-67.06h-0.13c-1.58,20.11-2.58,42.46-2.99,67.06H67.5c0.83-29.92,2.91-57.96,6.23-84.14h17.45l20.32,61.83h0.13l20.44-61.83
		h16.7C152.43,298.4,154.59,326.45,155.25,351.88"/>
	<path id="XMLID_18_" class="st0" d="M216.33,289.8c-5.73,31.12-13.3,53.73-22.69,67.84c-7.32,10.87-15.33,16.3-24.06,16.3
		c-2.33,0-5.2-0.7-8.6-2.09v-7.5c1.66,0.24,3.61,0.37,5.86,0.37c4.07,0,7.35-1.12,9.85-3.37c2.99-2.74,4.48-5.81,4.48-9.22
		c0-2.33-1.17-7.1-3.49-14.33l-15.46-48h13.84l11.09,35.9c2.49,8.15,3.53,13.84,3.12,17.08c6.07-16.21,10.31-33.87,12.72-52.98
		H216.33z"/>
	<polygon id="XMLID_19_" class="st1" points="403.81,351.88 363.8,351.88 363.8,267.74 377.26,267.74 377.26,341.53 403.81,341.53 	
		"/>
	<path id="XMLID_25_" class="st2" d="M353.33,353.91l-15.47-7.63c1.38-1.13,2.69-2.35,3.87-3.76c6.57-7.72,9.85-19.15,9.85-34.27
		c0-27.84-10.93-41.76-32.78-41.76c-10.72,0-19.07,3.53-25.06,10.6c-6.57,7.73-9.85,19.11-9.85,34.15c0,14.79,2.91,25.64,8.72,32.54
		c5.32,6.23,13.34,9.35,24.06,9.35c4,0,7.68-0.49,11.02-1.48l20.14,11.72L353.33,353.91z M303.22,335.05
		c-3.41-5.48-5.11-14.29-5.11-26.42c0-21.19,6.44-31.79,19.32-31.79c6.73,0,11.68,2.54,14.84,7.6c3.4,5.49,5.11,14.21,5.11,26.18
		c0,21.36-6.44,32.04-19.32,32.04C311.32,342.66,306.38,340.13,303.22,335.05"/>
	<path id="XMLID_26_" class="st1" d="M278.03,328.56c0,7.14-2.62,12.99-7.85,17.58c-5.23,4.56-12.26,6.85-21.06,6.85
		c-8.23,0-16.21-2.63-23.93-7.86l3.61-7.23c6.65,3.32,12.67,4.98,18.07,4.98c5.07,0,9.03-1.13,11.9-3.36
		c2.86-2.24,4.58-5.37,4.58-9.34c0-5-3.49-9.27-9.88-12.85c-5.9-3.24-17.7-10-17.7-10c-6.39-4.66-9.59-9.66-9.59-17.91
		c0-6.82,2.39-12.33,7.16-16.52c4.78-4.2,10.95-6.3,18.51-6.3c7.81,0,14.91,2.09,21.31,6.24l-3.25,7.22
		c-5.47-2.32-10.87-3.49-16.19-3.49c-4.32,0-7.65,1.04-9.97,3.12c-2.33,2.07-3.77,4.73-3.77,7.97c0,4.98,3.56,9.31,10.13,12.96
		c5.98,3.24,18.06,10.13,18.06,10.13C274.75,315.43,278.03,320.39,278.03,328.56"/>
	<path id="XMLID_27_" class="st3" d="M420.71,239.55c-8.14-0.2-14.44,0.61-19.72,2.85c-1.53,0.61-3.96,0.61-4.17,2.54
		c0.82,0.81,0.92,2.13,1.63,3.26c1.22,2.03,3.35,4.77,5.28,6.2c2.13,1.63,4.27,3.25,6.51,4.67c3.96,2.45,8.44,3.87,12.29,6.31
		c2.24,1.42,4.47,3.25,6.72,4.78c1.11,0.81,1.82,2.14,3.25,2.64v-0.31c-0.71-0.91-0.92-2.23-1.62-3.26
		c-1.02-1.01-2.03-1.93-3.05-2.94c-2.95-3.96-6.61-7.42-10.57-10.27c-3.26-2.24-10.38-5.29-11.69-9.04l-0.21-0.21
		c2.24-0.21,4.89-1.02,7.02-1.64c3.45-0.91,6.6-0.71,10.16-1.62c1.63-0.41,3.26-0.92,4.89-1.42v-0.92c-1.84-1.83-3.15-4.27-5.09-6
		c-5.18-4.47-10.88-8.84-16.78-12.51c-3.16-2.03-7.22-3.35-10.58-5.08c-1.21-0.61-3.25-0.91-3.96-1.93
		c-1.83-2.24-2.85-5.18-4.17-7.83c-2.94-5.59-5.8-11.78-8.33-17.69c-1.83-3.96-2.95-7.92-5.18-11.59
		c-10.48-17.29-21.86-27.75-39.35-38.02c-3.76-2.14-8.24-3.05-13.01-4.17c-2.55-0.11-5.09-0.3-7.63-0.4
		c-1.63-0.71-3.26-2.65-4.68-3.56c-5.8-3.66-20.74-11.59-25.01-1.12c-2.74,6.61,4.07,13.12,6.41,16.47
		c1.73,2.34,3.97,4.98,5.18,7.62c0.71,1.73,0.92,3.56,1.63,5.39c1.62,4.47,3.15,9.46,5.29,13.63c1.12,2.14,2.33,4.38,3.76,6.3
		c0.82,1.13,2.24,1.63,2.55,3.46c-1.42,2.03-1.53,5.08-2.34,7.62c-3.66,11.49-2.24,25.72,2.95,34.16c1.62,2.54,5.49,8.14,10.68,6
		c4.57-1.83,3.56-7.62,4.88-12.7c0.3-1.23,0.1-2.03,0.71-2.85v0.21c1.42,2.84,2.85,5.58,4.17,8.44c3.15,4.98,8.64,10.16,13.22,13.62
		c2.43,1.84,4.37,4.98,7.42,6.11v-0.31h-0.2c-0.61-0.91-1.52-1.32-2.34-2.03c-1.83-1.83-3.86-4.07-5.29-6.1
		c-4.27-5.69-8.04-12-11.38-18.5c-1.63-3.16-3.05-6.61-4.37-9.76c-0.61-1.21-0.61-3.05-1.63-3.66c-1.53,2.23-3.76,4.17-4.88,6.91
		c-1.93,4.38-2.13,9.76-2.85,15.36c-0.41,0.11-0.2,0-0.41,0.2c-3.25-0.81-4.37-4.17-5.59-7c-3.05-7.23-3.56-18.82-0.91-27.15
		c0.71-2.13,3.77-8.84,2.54-10.87c-0.61-1.94-2.65-3.05-3.76-4.58c-1.32-1.93-2.75-4.37-3.66-6.51c-2.44-5.69-3.67-12-6.3-17.69
		c-1.22-2.65-3.36-5.39-5.08-7.83c-1.94-2.75-4.07-4.68-5.6-7.93c-0.5-1.12-1.22-2.95-0.41-4.17c0.2-0.81,0.61-1.12,1.43-1.33
		c1.32-1.12,5.08,0.3,6.4,0.91c3.76,1.52,6.92,2.95,10.06,5.08c1.43,1.02,2.95,2.95,4.78,3.46h2.14c3.25,0.71,6.92,0.2,9.97,1.12
		c5.38,1.73,10.26,4.27,14.64,7.01c13.31,8.44,24.3,20.44,31.71,34.77c1.22,2.33,1.74,4.47,2.85,6.91
		c2.14,4.99,4.78,10.08,6.91,14.95c2.13,4.78,4.17,9.65,7.23,13.63c1.52,2.13,7.62,3.25,10.37,4.37c2.03,0.91,5.18,1.73,7.02,2.84
		c3.46,2.13,6.91,4.58,10.17,6.92C415.32,234.98,420.4,237.51,420.71,239.55"/>
	<path id="XMLID_28_" class="st3" d="M317,151.2c-1.72,0-2.94,0.21-4.17,0.51v0.2h0.2c0.82,1.62,2.24,2.75,3.25,4.17
		c0.82,1.63,1.53,3.25,2.34,4.87l0.2-0.2c1.43-1.01,2.14-2.64,2.14-5.08c-0.61-0.71-0.71-1.42-1.22-2.14
		C319.14,152.52,317.82,152.01,317,151.2"/>
	<path id="XMLID_31_" class="st1" d="M430.4,351.87h2.1v-10.31h-3.16l-2.58,7.03l-2.8-7.03h-3.05v10.31h1.99v-7.84h0.11l2.93,7.84
		h1.52l2.93-7.84V351.87z M413.42,351.87h2.23v-8.56h2.92v-1.75h-8.18v1.75h3.03V351.87z"/>
</g>
</svg>
