<?xml version="1.0" encoding="utf-8"?>
<!-- Generator: Adobe Illustrator 24.1.2, SVG Export Plug-In . SVG Version: 6.00 Build 0)  -->
<svg version="1.1" id="Layer_1" xmlns="http://www.w3.org/2000/svg" xmlns:xlink="http://www.w3.org/1999/xlink" x="0px" y="0px"
	 viewBox="0 0 500 500" style="enable-background:new 0 0 500 500;" xml:space="preserve">
<style type="text/css">
	.st0{fill:#689F63;}
	.st1{fill:#404137;}
	.st2{clip-path:url(#SVGID_2_);fill:url(#SVGID_3_);}
	.st3{clip-path:url(#SVGID_5_);fill:url(#SVGID_6_);}
	.st4{clip-path:url(#SVGID_8_);fill:url(#SVGID_9_);}
</style>
<g>
	<path class="st0" d="M247.91,361.77c-1.2,0-2.4-0.32-3.46-0.92l-11-6.52c-1.64-0.92-0.84-1.24-0.3-1.43
		c2.19-0.77,2.64-0.94,4.98-2.27c0.25-0.14,0.57-0.09,0.82,0.06l8.45,5.02c0.31,0.17,0.74,0.17,1.02,0l32.96-19.03
		c0.31-0.17,0.5-0.53,0.5-0.89v-38.04c0-0.38-0.2-0.72-0.51-0.91l-32.95-19.01c-0.31-0.18-0.71-0.18-1.01,0l-32.94,19.01
		c-0.32,0.18-0.52,0.54-0.52,0.9v38.04c0,0.36,0.2,0.71,0.51,0.88l9.03,5.21c4.9,2.45,7.9-0.44,7.9-3.34v-37.54
		c0-0.54,0.42-0.95,0.96-0.95h4.17c0.52,0,0.95,0.41,0.95,0.95v37.56c0,6.53-3.56,10.29-9.76,10.29c-1.91,0-3.41,0-7.6-2.06
		l-8.65-4.98c-2.14-1.24-3.46-3.55-3.46-6.01v-38.04c0-2.48,1.32-4.79,3.46-6.01l33-19.04c2.09-1.18,4.86-1.18,6.93,0l32.95,19.04
		c2.13,1.23,3.46,3.53,3.46,6.01v38.04c0,2.47-1.33,4.77-3.46,6.01l-32.95,19.04c-1.06,0.61-2.25,0.92-3.47,0.92"/>
	<path class="st0" d="M258.09,335.56c-14.42,0-17.45-6.62-17.45-12.17c0-0.53,0.43-0.95,0.95-0.95h4.26c0.47,0,0.87,0.34,0.94,0.81
		c0.64,4.34,2.56,6.53,11.28,6.53c6.95,0,9.9-1.57,9.9-5.25c0-2.12-0.84-3.7-11.63-4.75c-9.03-0.89-14.6-2.88-14.6-10.1
		c0-6.65,5.61-10.61,15.01-10.61c10.55,0,15.78,3.66,16.44,11.53c0.02,0.27-0.07,0.54-0.26,0.73c-0.18,0.19-0.44,0.31-0.7,0.31
		h-4.28c-0.45,0-0.83-0.31-0.92-0.74c-1.03-4.56-3.52-6.02-10.3-6.02c-7.58,0-8.47,2.64-8.47,4.62c0,2.4,1.04,3.1,11.27,4.46
		c10.13,1.35,14.94,3.24,14.94,10.36c0,7.18-5.99,11.3-16.44,11.3 M298.19,295.26h1.11c0.91,0,1.08-0.64,1.08-1.01
		c0-0.97-0.67-0.97-1.04-0.97h-1.14L298.19,295.26z M296.84,292.14h2.45c0.84,0,2.49,0,2.49,1.88c0,1.31-0.84,1.58-1.34,1.75
		c0.98,0.07,1.05,0.71,1.18,1.62c0.07,0.57,0.17,1.55,0.37,1.88h-1.51c-0.04-0.33-0.27-2.15-0.27-2.24c-0.1-0.4-0.24-0.6-0.74-0.6
		h-1.25v2.85h-1.38V292.14z M293.9,295.69c0,2.95,2.38,5.35,5.31,5.35c2.95,0,5.34-2.44,5.34-5.35c0-2.96-2.42-5.31-5.35-5.31
		C296.32,290.38,293.89,292.7,293.9,295.69 M305.57,295.71c0,3.5-2.86,6.35-6.35,6.35c-3.47,0-6.35-2.82-6.35-6.35
		c0-3.6,2.95-6.35,6.35-6.35C302.64,289.35,305.57,292.12,305.57,295.71"/>
	<path class="st1" d="M145.83,212.94c0-1.52-0.8-2.91-2.11-3.67l-34.95-20.11c-0.59-0.35-1.25-0.53-1.92-0.55h-0.36
		c-0.67,0.02-1.33,0.21-1.93,0.55l-34.95,20.11c-1.3,0.76-2.11,2.15-2.11,3.67l0.08,54.16c0,0.75,0.39,1.45,1.05,1.82
		c0.64,0.4,1.45,0.4,2.1,0l20.78-11.9c1.31-0.78,2.11-2.16,2.11-3.66v-25.3c0-1.51,0.8-2.9,2.11-3.66l8.85-5.09
		c0.66-0.38,1.38-0.57,2.11-0.57c0.72,0,1.46,0.19,2.1,0.57l8.84,5.09c1.31,0.75,2.11,2.15,2.11,3.66v25.3
		c0,1.5,0.81,2.89,2.12,3.66l20.76,11.89c0.65,0.39,1.46,0.39,2.11,0c0.64-0.37,1.05-1.07,1.05-1.82L145.83,212.94z M310.74,241.14
		c0,0.38-0.2,0.73-0.53,0.91l-12,6.92c-0.33,0.19-0.73,0.19-1.05,0l-12.01-6.92c-0.33-0.19-0.53-0.54-0.53-0.91v-13.86
		c0-0.38,0.2-0.73,0.52-0.92l12-6.93c0.33-0.19,0.73-0.19,1.06,0l12.01,6.93c0.33,0.19,0.53,0.54,0.53,0.92L310.74,241.14z
		 M313.99,138.49c-0.66-0.36-1.45-0.35-2.1,0.02c-0.64,0.38-1.04,1.07-1.04,1.82v53.63c0,0.53-0.28,1.01-0.74,1.28
		c-0.45,0.26-1.02,0.26-1.48,0l-8.75-5.04c-1.3-0.75-2.91-0.75-4.22,0l-34.96,20.18c-1.31,0.75-2.11,2.15-2.11,3.65v40.36
		c0,1.51,0.81,2.9,2.11,3.66l34.96,20.19c1.31,0.75,2.91,0.75,4.22,0l34.96-20.2c1.3-0.76,2.11-2.15,2.11-3.66v-100.6
		c0-1.53-0.83-2.94-2.17-3.69L313.99,138.49z M430.4,226.92c1.3-0.75,2.1-2.15,2.1-3.65v-9.78c0-1.51-0.8-2.89-2.1-3.65
		l-34.74-20.17c-1.31-0.76-2.92-0.76-4.23,0l-34.95,20.17c-1.31,0.76-2.11,2.15-2.11,3.66v40.35c0,1.52,0.82,2.92,2.13,3.67
		l34.73,19.79c1.28,0.73,2.85,0.74,4.14,0.02l21.01-11.68c0.66-0.37,1.08-1.07,1.08-1.83c0-0.76-0.4-1.47-1.06-1.84l-35.17-20.18
		c-0.66-0.37-1.06-1.07-1.06-1.82v-12.66c0-0.76,0.4-1.45,1.06-1.83l10.94-6.31c0.65-0.38,1.45-0.38,2.1,0l10.95,6.31
		c0.65,0.37,1.06,1.07,1.06,1.82v9.95c0,0.75,0.4,1.45,1.06,1.83c0.65,0.37,1.46,0.37,2.11-0.01L430.4,226.92z"/>
	<path class="st0" d="M393.03,225.03c0.25-0.15,0.56-0.15,0.81,0l6.71,3.87c0.25,0.15,0.4,0.41,0.4,0.7v7.75
		c0,0.29-0.15,0.56-0.4,0.7l-6.71,3.87c-0.25,0.15-0.56,0.15-0.81,0l-6.7-3.87c-0.26-0.15-0.41-0.41-0.41-0.7v-7.75
		c0-0.29,0.15-0.56,0.4-0.7L393.03,225.03z"/>
	<g>
		<defs>
			<path id="SVGID_1_" d="M200.11,189.87l-34.76,20.06c-1.3,0.75-2.1,2.14-2.1,3.64v40.16c0,1.5,0.8,2.88,2.1,3.64l34.76,20.08
				c1.3,0.75,2.9,0.75,4.2,0l34.76-20.08c1.3-0.75,2.1-2.14,2.1-3.64v-40.16c0-1.5-0.8-2.88-2.1-3.64l-34.75-20.06
				c-0.65-0.37-1.38-0.56-2.1-0.56S200.76,189.5,200.11,189.87"/>
		</defs>
		<clipPath id="SVGID_2_">
			<use xlink:href="#SVGID_1_"  style="overflow:visible;"/>
		</clipPath>
		
			<linearGradient id="SVGID_3_" gradientUnits="userSpaceOnUse" x1="0.3773" y1="-0.047" x2="0.9962" y2="-0.047" gradientTransform="matrix(-81.162 165.5699 -165.5699 -81.162 250.1612 116.2246)">
			<stop  offset="0" style="stop-color:#3E863D"/>
			<stop  offset="0.3" style="stop-color:#3E863D"/>
			<stop  offset="0.5" style="stop-color:#55934F"/>
			<stop  offset="0.8" style="stop-color:#5AAD45"/>
			<stop  offset="1" style="stop-color:#5AAD45"/>
		</linearGradient>
		<polygon class="st2" points="276.3,206.53 178.35,158.51 128.12,260.97 226.07,308.99 		"/>
	</g>
	<g>
		<defs>
			<path id="SVGID_4_" d="M164.11,256.27c0.33,0.43,0.75,0.81,1.24,1.09l29.82,17.22l4.97,2.85c0.74,0.43,1.59,0.61,2.42,0.55
				c0.28-0.02,0.55-0.07,0.83-0.15l36.66-67.13c-0.28-0.31-0.61-0.56-0.98-0.78l-22.76-13.14l-12.03-6.92
				c-0.34-0.2-0.71-0.34-1.09-0.44L164.11,256.27z"/>
		</defs>
		<clipPath id="SVGID_5_">
			<use xlink:href="#SVGID_4_"  style="overflow:visible;"/>
		</clipPath>
		
			<linearGradient id="SVGID_6_" gradientUnits="userSpaceOnUse" x1="0.0503" y1="0.1331" x2="0.6691" y2="0.1331" gradientTransform="matrix(147.809 -109.2133 109.2133 147.809 134.3817 253.3567)">
			<stop  offset="0" style="stop-color:#3E863D"/>
			<stop  offset="0.57" style="stop-color:#3E863D"/>
			<stop  offset="0.72" style="stop-color:#619857"/>
			<stop  offset="1" style="stop-color:#76AC64"/>
		</linearGradient>
		<polygon class="st3" points="121.76,220.73 190.93,314.34 282.4,246.76 213.23,153.15 		"/>
	</g>
	<g>
		<defs>
			<path id="SVGID_7_" d="M201.79,189.33c-0.58,0.06-1.15,0.24-1.68,0.54l-34.66,20.01l37.38,68.08c0.52-0.07,1.03-0.25,1.49-0.51
				l34.76-20.08c1.07-0.62,1.81-1.67,2.03-2.87l-38.1-65.09c-0.28-0.06-0.56-0.08-0.85-0.08c-0.12,0-0.23,0.01-0.35,0.02"/>
		</defs>
		<clipPath id="SVGID_8_">
			<use xlink:href="#SVGID_7_"  style="overflow:visible;"/>
		</clipPath>
		
			<linearGradient id="SVGID_9_" gradientUnits="userSpaceOnUse" x1="0.1301" y1="0.2836" x2="0.7489" y2="0.2836" gradientTransform="matrix(122.2438 0 0 122.2438 149.5464 198.9629)">
			<stop  offset="0" style="stop-color:#6BBF47"/>
			<stop  offset="0.16" style="stop-color:#6BBF47"/>
			<stop  offset="0.38" style="stop-color:#79B461"/>
			<stop  offset="0.47" style="stop-color:#75AC64"/>
			<stop  offset="0.7" style="stop-color:#659E5A"/>
			<stop  offset="0.9" style="stop-color:#3E863D"/>
			<stop  offset="1" style="stop-color:#3E863D"/>
		</linearGradient>
		<rect x="165.45" y="189.32" class="st4" width="75.65" height="88.64"/>
	</g>
</g>
</svg>
